<svg width="57" height="64" viewBox="0 0 57 64" fill="none" xmlns="http://www.w3.org/2000/svg">
<path d="M13.75 8.19999C13.89 8.43999 14.14 8.57999 14.4 8.57999C14.53 8.57999 14.66 8.54999 14.77 8.47999C15.13 8.26999 15.25 7.80999 15.04 7.45999L13.74 5.19999C13.53 4.83999 13.07 4.71999 12.72 4.92999C12.36 5.13999 12.24 5.59999 12.45 5.94999L13.75 8.19999Z" fill="url(#paint0_linear_244_234)"/>
<path d="M4.13994 14.8001L6.39993 16.1001C6.51993 16.1701 6.64994 16.2001 6.76994 16.2001C7.02994 16.2001 7.27993 16.0701 7.41993 15.8201C7.62994 15.4601 7.49993 15.0001 7.14993 14.8001L4.88994 13.5001C4.52994 13.2901 4.06993 13.4201 3.86993 13.7701C3.65993 14.1301 3.77994 14.5901 4.13994 14.8001Z" fill="url(#paint1_linear_244_234)"/>
<path d="M3.98012 26.6299C4.39012 26.6299 4.73012 26.2899 4.73012 25.8799C4.73012 25.4699 4.39012 25.1299 3.98012 25.1299H1.37012C0.960117 25.1299 0.620117 25.4699 0.620117 25.8799C0.620117 26.2899 0.960117 26.6299 1.37012 26.6299H3.98012Z" fill="url(#paint2_linear_244_234)"/>
<path d="M24.8301 5.76992C25.2401 5.76992 25.5801 5.42992 25.5801 5.01992V2.41992C25.5801 2.00992 25.2401 1.66992 24.8301 1.66992C24.4201 1.66992 24.0801 2.00992 24.0801 2.41992V5.02992C24.0801 5.43992 24.4101 5.76992 24.8301 5.76992Z" fill="url(#paint3_linear_244_234)"/>
<path d="M6.39993 35.6599L4.13994 36.9599C3.77994 37.1699 3.65993 37.6299 3.86993 37.9799C4.00993 38.2199 4.25994 38.3599 4.51994 38.3599C4.64994 38.3599 4.77994 38.3299 4.88994 38.2599L7.14993 36.9599C7.50993 36.7499 7.62994 36.2899 7.41993 35.9399C7.20993 35.5899 6.74993 35.4499 6.39993 35.6599Z" fill="url(#paint4_linear_244_234)"/>
<path d="M24.8302 36.98H24.1202L23.7302 35.24C23.6202 34.71 23.2102 34.3 22.6802 34.17C21.8902 33.97 21.1602 33.66 20.4802 33.25C20.0102 32.98 19.4302 32.99 19.0002 33.28L17.5002 34.23L16.4702 33.22L17.4602 31.7C17.7202 31.24 17.7202 30.67 17.4502 30.23C17.0502 29.56 16.7402 28.81 16.5302 28.03C16.3902 27.49 15.9902 27.09 15.4702 26.98L13.7302 26.59V25.16L15.4602 24.78C15.9802 24.66 16.3902 24.27 16.5302 23.73C16.7202 22.98 17.0302 22.24 17.4602 21.52C17.7302 21.05 17.7102 20.48 17.4302 20.04L16.4302 18.59L17.4902 17.53L18.9902 18.48C19.4302 18.77 20.0102 18.78 20.4902 18.5C21.1502 18.11 21.8902 17.8 22.6802 17.59C23.2202 17.45 23.6202 17.04 23.7302 16.52L24.1202 14.78H24.8302C25.2402 14.78 25.5802 14.45 25.5802 14.03V8.95996C25.5802 8.53996 25.2402 8.20996 24.8302 8.20996C15.0902 8.20996 7.16016 16.13 7.16016 25.86C7.16016 30.93 9.34016 35.75 13.1302 39.1C14.6202 40.42 15.7902 42.03 16.6002 43.88C17.2802 45.43 17.6502 47.07 17.7502 48.77C16.8402 48.85 16.1502 49.14 15.6602 49.66C15.0902 50.27 14.8402 51.15 14.9402 52.27C15.5602 59.53 20.6602 62.11 24.8302 62.11C25.2402 62.11 25.5802 61.77 25.5802 61.36C25.5802 60.94 25.2402 60.61 24.8302 60.61C23.6802 60.61 18.4502 60.26 16.8502 54.45H24.8302C25.2402 54.45 25.5802 54.11 25.5802 53.7C25.5802 53.28 25.2402 52.95 24.8302 52.95H16.5402C16.5102 52.68 16.4602 52.43 16.4302 52.14C16.3802 51.46 16.4802 50.97 16.7502 50.69C17.0602 50.36 17.6602 50.21 18.5502 50.23H24.8302C25.2402 50.23 25.5802 49.9 25.5802 49.48V37.73C25.5802 37.32 25.2402 36.98 24.8302 36.98Z" fill="url(#paint5_linear_244_234)"/>
<path d="M24.8303 21.5801C22.4603 21.5801 20.5303 23.5101 20.5303 25.8801C20.5303 28.2501 22.4603 30.1801 24.8303 30.1801C25.2403 30.1801 25.5803 29.8501 25.5803 29.4301V22.3301C25.5803 21.9201 25.2403 21.5801 24.8303 21.5801Z" fill="url(#paint6_linear_244_234)"/>
<path d="M56.3801 37.43C56.3801 35.25 55.2901 33.21 53.5101 31.98C53.5801 31.59 53.6201 31.19 53.6201 30.77C53.6201 28.56 52.5201 26.53 50.7301 25.32C52.0101 24.09 52.7501 22.39 52.7501 20.58C52.7501 17.76 51.0001 15.31 48.4001 14.37C48.4101 14.3 48.4201 14.24 48.4301 14.17C48.4401 14.14 48.4401 14.1 48.4501 14.07C48.5001 13.77 48.5301 13.47 48.5301 13.17C48.5301 10.16 46.0801 7.71 43.0801 7.71C43.0701 7.71 43.0601 7.71 43.0601 7.71C43.0901 7.48 43.1001 7.25 43.1001 7.02C43.1001 4.01 40.6501 1.56 37.6501 1.56C37.2501 1.56 36.8601 1.6 36.4701 1.69C35.4501 0.61 34.0401 0 32.5401 0C29.5301 0 27.0801 2.45 27.0801 5.46V56.18C27.0801 60.49 30.6401 64 35.0201 64C38.6201 64 41.7001 61.57 42.5701 58.15C45.9701 57.9 48.6601 55.05 48.6601 51.57C48.6601 51.4 48.6501 51.24 48.6401 51.07C51.0901 50.08 52.7501 47.66 52.7501 44.97C52.7501 44.43 52.6901 43.9 52.5601 43.39C54.8701 42.33 56.3801 40.02 56.3801 37.43ZM51.4001 42.24C51.3701 42.25 49.4901 42.76 47.7201 42.07C47.3301 41.92 46.9001 42.13 46.7601 42.52C46.6201 42.91 46.8201 43.34 47.2101 43.48C47.6901 43.66 48.6201 44 49.8501 44C50.2401 44 50.6701 43.95 51.1201 43.86C51.2001 44.22 51.2601 44.59 51.2601 44.97C51.2601 47.22 49.7601 49.22 47.6101 49.85C47.5901 49.85 45.8701 50.3 44.0001 49.57C43.6101 49.42 43.1801 49.63 43.0401 50.02C42.9001 50.41 43.1001 50.84 43.4901 50.98C44.5401 51.37 45.5701 51.49 46.4001 51.49C46.6801 51.49 46.9301 51.47 47.1601 51.45C47.1601 51.49 47.1701 51.53 47.1701 51.57C47.1701 54.38 44.9001 56.66 42.1601 56.68C42.1401 56.68 42.1201 56.67 42.0901 56.67C40.2601 56.67 38.5701 55.68 37.6601 54.08C37.4601 53.72 37.0001 53.59 36.6401 53.8C36.2801 54 36.1501 54.46 36.3601 54.82C37.3501 56.57 39.0801 57.75 41.0301 58.07C40.2301 60.68 37.8401 62.5 35.0301 62.5C32.5201 62.5 30.3401 61.08 29.2801 59.01C29.5901 58.38 30.4901 56.84 31.8701 56.67C34.1201 56.39 34.9001 54.83 34.9301 54.77C35.1101 54.4 34.9501 53.96 34.5901 53.78C34.2301 53.6 33.7801 53.74 33.5901 54.11C33.5701 54.15 33.1001 55.01 31.6901 55.19C30.3201 55.36 29.3301 56.29 28.6801 57.15C28.6301 56.83 28.6001 56.51 28.6001 56.19V50.59C29.3901 50.96 30.5201 51.33 31.8401 51.33C32.3001 51.33 32.7801 51.26 33.2801 51.16C33.5401 51.56 33.8801 51.93 34.3101 52.25C34.4501 52.35 34.6001 52.4 34.7601 52.4C34.9901 52.4 35.2101 52.3 35.3601 52.1C35.6101 51.77 35.5401 51.3 35.2101 51.05C34.3701 50.41 34.0601 49.65 34.2301 48.63C34.3001 48.22 34.0301 47.83 33.6201 47.76C33.2101 47.69 32.8201 47.96 32.7501 48.37C32.6701 48.85 32.6701 49.3 32.7401 49.73C30.8601 50.05 29.2401 49.26 28.6001 48.88V40.27C30.2101 41.66 33.1301 43.59 36.6701 43.2C40.4601 42.79 42.2101 46.92 42.2901 47.09C42.4101 47.38 42.6901 47.55 42.9801 47.55C43.0701 47.55 43.1701 47.53 43.2601 47.49C43.6401 47.33 43.8301 46.9 43.6701 46.51C43.2701 45.52 42.3801 44.11 41.0501 43.06C44.4101 42.08 45.7501 39.2 45.8101 39.06C45.9801 38.68 45.8101 38.24 45.4301 38.07C45.0501 37.9 44.6101 38.07 44.4401 38.44C44.3801 38.58 42.8301 41.85 38.7801 41.88C38.0801 41.68 37.3301 41.6 36.5001 41.69C32.6001 42.13 29.3701 39 28.6001 38.18V26.37C29.1101 26.42 29.5701 26.6 29.9501 26.94C30.9701 27.84 31.5301 29.77 31.5301 32.38C31.5301 35.14 33.7101 37.35 37.1001 38.01C37.6901 38.13 38.3101 38.19 38.9301 38.19C41.4901 38.19 44.0701 37.17 44.9901 34.88C45.1801 34.42 45.3101 33.97 45.3901 33.54C46.4301 33.31 48.5501 32.57 49.1001 30.31C49.2001 29.91 48.9501 29.5 48.5501 29.4C48.1401 29.3 47.7401 29.55 47.6401 29.95C47.3301 31.2 46.2101 31.74 45.4301 31.97C45.3601 31.52 45.2301 31.09 45.0101 30.69C43.9801 28.81 41.6601 28.36 41.5601 28.35C41.1501 28.27 40.7601 28.54 40.6901 28.95C40.6101 29.36 40.8801 29.75 41.2901 29.82C41.3101 29.82 43.0201 30.17 43.6901 31.41C44.1001 32.16 44.0701 33.14 43.5901 34.31C42.7401 36.4 39.8201 37.01 37.3701 36.54C35.2701 36.13 33.0201 34.82 33.0201 32.39C33.0201 29.3 32.3001 27.03 30.9301 25.82C30.2701 25.24 29.4701 24.92 28.5901 24.87V19.22C28.9101 18.75 30.0101 17.35 31.8901 17.24C34.3301 17.12 37.2701 19.26 40.3801 23.46C40.5301 23.66 40.7501 23.76 40.9801 23.76C41.1301 23.76 41.2901 23.71 41.4201 23.61C41.7501 23.36 41.8201 22.89 41.5801 22.56C38.1001 17.85 34.8001 15.55 31.7801 15.73C30.4001 15.81 29.3401 16.4 28.5801 17.02V8.15C30.4901 8.46 32.0701 9.93 32.4601 11.87C32.6401 12.77 33.3701 13.49 34.2601 13.67C35.1201 13.85 35.9201 14.27 36.5601 14.88C37.2201 15.51 38.0901 15.83 38.9701 15.83C39.7301 15.83 40.5101 15.59 41.1801 15.11C41.5501 14.84 41.9601 14.65 42.4001 14.52C42.8001 14.41 43.0301 13.99 42.9201 13.59C42.8101 13.19 42.3901 12.96 41.9901 13.07C41.3901 13.24 40.8201 13.51 40.3101 13.88C39.4401 14.5 38.3001 14.46 37.5901 13.78C36.7401 12.97 35.6901 12.42 34.5501 12.19C34.2401 12.13 33.9801 11.86 33.9101 11.55C33.3701 8.91 31.1801 6.95 28.5601 6.63V5.44C28.5601 3.26 30.3401 1.48 32.5201 1.48C33.7201 1.48 34.8501 2.02 35.6101 2.97C35.6101 2.97 35.6101 2.97 35.6101 2.98C36.1701 3.69 36.4701 4.54 36.4701 5.44C36.4701 5.85 36.8101 6.19 37.2201 6.19C37.6301 6.19 37.9701 5.85 37.9701 5.44C37.9701 4.61 37.7601 3.79 37.4001 3.05C37.4801 3.05 37.5501 3.03 37.6301 3.03C39.8101 3.03 41.5801 4.8 41.5801 6.98V6.99C41.5801 7.34 41.5201 7.68 41.4301 8.01C41.4101 8.1 41.3901 8.19 41.3601 8.27C40.9401 9.46 39.9601 10.43 38.7001 10.79C38.3001 10.9 38.0701 11.32 38.1801 11.72C38.2701 12.05 38.5701 12.26 38.9001 12.26C38.9701 12.26 39.0401 12.25 39.1101 12.23C40.6801 11.78 41.9201 10.66 42.5701 9.23C42.7301 9.21 42.8801 9.18 43.0601 9.18C45.2401 9.18 47.0101 10.95 47.0101 13.14V13.15C47.0101 13.54 46.9401 13.92 46.8301 14.28C46.8101 14.36 46.7901 14.45 46.7601 14.53C46.2901 15.79 45.2001 16.77 43.8201 17.04C43.4101 17.12 43.1501 17.51 43.2301 17.92C43.3001 18.28 43.6101 18.53 43.9601 18.53C44.0101 18.53 44.0601 18.53 44.1101 18.52C45.7401 18.2 47.0801 17.16 47.8401 15.78C49.8601 16.49 51.2401 18.38 51.2401 20.57C51.2401 22.28 50.3901 23.86 48.9601 24.8C48.9501 24.8 48.9501 24.81 48.9401 24.82C48.1101 25.37 47.1501 25.66 46.1501 25.66C45.7401 25.66 45.4001 26 45.4001 26.41C45.4001 26.82 45.7401 27.16 46.1501 27.16C47.2901 27.16 48.4001 26.85 49.3801 26.29C51.0301 27.17 52.0801 28.88 52.0901 30.76C52.0901 30.76 51.9801 31.75 51.9701 31.81C51.5401 33.84 49.8801 35.48 47.7701 35.8C47.3601 35.86 47.0801 36.24 47.1401 36.65C47.2001 37.02 47.5201 37.29 47.8801 37.29C47.9201 37.29 47.9601 37.29 47.9901 37.28C50.2301 36.94 52.0601 35.45 52.9601 33.48C54.1301 34.44 54.8401 35.89 54.8401 37.43C54.8801 39.62 53.4801 41.56 51.4001 42.24Z" fill="url(#paint7_linear_244_234)"/>
<path d="M42.71 20.2399C42.36 20.4699 42.27 20.9299 42.49 21.2799C42.78 21.7199 43.45 23.0799 43.14 24.0899C42.98 24.5999 42.58 24.9799 41.92 25.2499C39.81 26.1199 38.31 25.6099 37.21 23.6499L37 23.2699C36.37 22.0899 35.66 20.7499 32.55 19.4199C32.17 19.2599 31.73 19.4299 31.56 19.8099C31.4 20.1899 31.57 20.6299 31.95 20.7999C34.57 21.9299 35.11 22.9299 35.67 23.9799L35.89 24.3899C36.11 24.7799 36.35 25.1199 36.6 25.4199C36.54 26.0199 36.3 27.5899 35.28 28.9099C34.7 29.6499 34.73 30.6999 35.35 31.5599C35.99 32.4499 37.25 33.1399 38.89 33.1399C39.6 33.1399 40.37 33.0099 41.2 32.7199C41.59 32.5799 41.8 32.1499 41.66 31.7599C41.52 31.3699 41.09 31.1599 40.7 31.2999C38.67 32.0099 37.16 31.4999 36.56 30.6799C36.47 30.5599 36.21 30.1399 36.45 29.8199C37.31 28.7099 37.72 27.4799 37.92 26.5599C38.58 26.9499 39.31 27.1499 40.11 27.1499C40.85 27.1499 41.64 26.9799 42.48 26.6399C43.57 26.1899 44.27 25.4799 44.56 24.5299C45.14 22.6399 43.79 20.5499 43.73 20.4599C43.52 20.1099 43.06 20.0099 42.71 20.2399Z" fill="url(#paint8_linear_244_234)"/>
<path d="M40.51 52.02C39.78 51.57 39.34 50.8 39.28 49.85C39.06 46.55 35.79 45.51 35.65 45.46C35.26 45.34 34.84 45.56 34.71 45.95C34.59 46.34 34.81 46.76 35.2 46.89C35.3 46.92 37.62 47.68 37.77 49.94C37.86 51.37 38.57 52.59 39.72 53.29C40.37 53.69 41.12 53.89 41.87 53.89C42.43 53.89 42.99 53.78 43.53 53.55C43.91 53.39 44.09 52.95 43.92 52.57C43.76 52.19 43.31 52.01 42.94 52.18C42.15 52.53 41.24 52.47 40.51 52.02Z" fill="url(#paint9_linear_244_234)"/>
<defs>
<linearGradient id="paint0_linear_244_234" x1="13.745" y1="4.82666" x2="13.745" y2="8.57999" gradientUnits="userSpaceOnUse">
<stop stop-color="#42586A"/>
<stop offset="1" stop-color="#05B2DF"/>
</linearGradient>
<linearGradient id="paint1_linear_244_234" x1="5.64384" y1="13.3989" x2="5.64384" y2="16.2001" gradientUnits="userSpaceOnUse">
<stop stop-color="#42586A"/>
<stop offset="1" stop-color="#05B2DF"/>
</linearGradient>
<linearGradient id="paint2_linear_244_234" x1="2.67512" y1="25.1299" x2="2.67512" y2="26.6299" gradientUnits="userSpaceOnUse">
<stop stop-color="#42586A"/>
<stop offset="1" stop-color="#05B2DF"/>
</linearGradient>
<linearGradient id="paint3_linear_244_234" x1="24.8301" y1="1.66992" x2="24.8301" y2="5.76992" gradientUnits="userSpaceOnUse">
<stop stop-color="#42586A"/>
<stop offset="1" stop-color="#05B2DF"/>
</linearGradient>
<linearGradient id="paint4_linear_244_234" x1="5.64493" y1="35.5613" x2="5.64493" y2="38.3599" gradientUnits="userSpaceOnUse">
<stop stop-color="#42586A"/>
<stop offset="1" stop-color="#05B2DF"/>
</linearGradient>
<linearGradient id="paint5_linear_244_234" x1="16.3702" y1="8.20996" x2="16.3702" y2="62.11" gradientUnits="userSpaceOnUse">
<stop stop-color="#42586A"/>
<stop offset="1" stop-color="#05B2DF"/>
</linearGradient>
<linearGradient id="paint6_linear_244_234" x1="23.0553" y1="21.5801" x2="23.0553" y2="30.1801" gradientUnits="userSpaceOnUse">
<stop stop-color="#42586A"/>
<stop offset="1" stop-color="#05B2DF"/>
</linearGradient>
<linearGradient id="paint7_linear_244_234" x1="41.7301" y1="0" x2="41.7301" y2="64" gradientUnits="userSpaceOnUse">
<stop stop-color="#42586A"/>
<stop offset="1" stop-color="#05B2DF"/>
</linearGradient>
<linearGradient id="paint8_linear_244_234" x1="38.1022" y1="19.3599" x2="38.1022" y2="33.1399" gradientUnits="userSpaceOnUse">
<stop stop-color="#42586A"/>
<stop offset="1" stop-color="#05B2DF"/>
</linearGradient>
<linearGradient id="paint9_linear_244_234" x1="39.3308" y1="45.4272" x2="39.3308" y2="53.89" gradientUnits="userSpaceOnUse">
<stop stop-color="#42586A"/>
<stop offset="1" stop-color="#05B2DF"/>
</linearGradient>
</defs>
</svg>
