<svg width="102" height="64" viewBox="0 0 102 64" fill="none" xmlns="http://www.w3.org/2000/svg">
<path d="M100.274 64H13.0531C12.1469 64 11.354 63.207 11.354 62.3008C11.354 61.3946 12.1469 60.6017 13.0531 60.6017H98.5752V13.0265C98.5752 12.1203 99.3682 11.3274 100.274 11.3274C101.181 11.3274 101.973 12.1203 101.973 13.0265V62.3008C101.973 63.3203 101.181 64 100.274 64Z" fill="url(#paint0_linear_853_4136)"/>
<path d="M94.6103 58.3364H7.38906C6.48286 58.3364 5.68994 57.5435 5.68994 56.6373C5.68994 55.7311 6.48286 54.9382 7.38906 54.9382H92.9112V7.36293C92.9112 6.45674 93.7041 5.66382 94.6103 5.66382C95.5165 5.66382 96.3094 6.45674 96.3094 7.36293V56.6373C96.3094 57.6567 95.5165 58.3364 94.6103 58.3364Z" fill="url(#paint1_linear_853_4136)"/>
<path d="M88.9467 52.6726H1.72548C0.819288 52.6726 0.0263672 51.8796 0.0263672 50.9735V1.69912C0.0263672 0.79292 0.819288 0 1.72548 0H88.9467C89.8529 0 90.6458 0.79292 90.6458 1.69912V50.9735C90.6458 51.9929 89.8529 52.6726 88.9467 52.6726ZM3.4246 49.2743H87.2476V3.5115H3.4246V49.2743Z" fill="url(#paint2_linear_853_4136)"/>
<path d="M22.1149 26.393C22.1149 19.4833 25.0601 13.3664 29.8176 9.17529H10.7875C9.8813 9.17529 9.08838 9.96821 9.08838 10.8744V42.0249C9.08838 42.931 9.8813 43.724 10.7875 43.724H29.8176C25.0601 39.4195 22.1149 33.3027 22.1149 26.393Z" fill="url(#paint3_linear_853_4136)"/>
<path d="M79.8851 9.17529H60.855C65.6125 13.4797 68.5576 19.5965 68.5576 26.393C68.5576 33.1895 65.6125 39.4195 60.855 43.6107H79.8851C80.7913 43.6107 81.5842 42.8178 81.5842 41.9116V10.7611C81.5842 9.85494 80.7913 9.17529 79.8851 9.17529Z" fill="url(#paint4_linear_853_4136)"/>
<path d="M36.8447 10.3533H58.1279V10.3975C56.8742 12.3297 56.1663 13.3621 56.004 13.4949H50.3182C51.0999 14.4093 51.6309 15.5229 51.9111 16.8356H57.9731C58.0468 16.8503 58.0837 16.8798 58.0837 16.9241C56.7268 18.9595 56.0335 19.9772 56.004 19.9772H52.066C51.9775 21.0244 51.476 22.2854 50.5616 23.7604C49.3521 25.25 48.1943 26.2161 47.0881 26.6586C45.0232 27.6468 43.0468 28.1409 41.1589 28.1409V28.1851C41.1589 28.3326 41.6235 28.9447 42.5527 30.0214L53.0616 42.6984V43.2958C53.0616 43.3548 53.0247 43.3842 52.9509 43.3842H48.3271C40.0085 33.694 35.8492 28.8267 35.8492 28.7825V25.84L35.8934 25.7294C36.6309 25.8326 37.4937 25.8842 38.4819 25.8842C43.1427 25.8842 46.0409 24.3724 47.1766 21.3488C47.3536 20.9064 47.4421 20.4491 47.4421 19.9772H34.7872C34.7282 19.9772 34.6987 19.9477 34.6987 19.8887C36.0999 17.8533 36.8152 16.8356 36.8447 16.8356H46.889V16.7913C46.3138 15.6261 45.2002 14.7191 43.5483 14.0701C42.3683 13.6866 41.3064 13.4949 40.3624 13.4949H34.743V13.3842C36.0999 11.3636 36.8005 10.3533 36.8447 10.3533Z" fill="url(#paint5_linear_853_4136)"/>
<defs>
<linearGradient id="paint0_linear_853_4136" x1="56.6637" y1="11.3274" x2="56.6637" y2="64" gradientUnits="userSpaceOnUse">
<stop stop-color="#42586A"/>
<stop offset="1" stop-color="#05B2DF"/>
</linearGradient>
<linearGradient id="paint1_linear_853_4136" x1="50.9997" y1="5.66382" x2="50.9997" y2="58.3364" gradientUnits="userSpaceOnUse">
<stop stop-color="#42586A"/>
<stop offset="1" stop-color="#05B2DF"/>
</linearGradient>
<linearGradient id="paint2_linear_853_4136" x1="45.3361" y1="0" x2="45.3361" y2="52.6726" gradientUnits="userSpaceOnUse">
<stop stop-color="#42586A"/>
<stop offset="1" stop-color="#05B2DF"/>
</linearGradient>
<linearGradient id="paint3_linear_853_4136" x1="19.453" y1="9.17529" x2="19.453" y2="43.724" gradientUnits="userSpaceOnUse">
<stop stop-color="#42586A"/>
<stop offset="1" stop-color="#05B2DF"/>
</linearGradient>
<linearGradient id="paint4_linear_853_4136" x1="71.2196" y1="9.17529" x2="71.2196" y2="43.6107" gradientUnits="userSpaceOnUse">
<stop stop-color="#42586A"/>
<stop offset="1" stop-color="#05B2DF"/>
</linearGradient>
<linearGradient id="paint5_linear_853_4136" x1="46.4133" y1="10.3533" x2="46.4133" y2="43.3842" gradientUnits="userSpaceOnUse">
<stop stop-color="#42586A"/>
<stop offset="1" stop-color="#05B2DF"/>
</linearGradient>
</defs>
</svg>
