<svg width="71" height="64" viewBox="0 0 71 64" fill="none" xmlns="http://www.w3.org/2000/svg">
<path d="M69.4127 55.799L39.4276 2.43784C39.065 1.70586 38.5052 1.08975 37.8111 0.658998C37.1171 0.228248 36.3165 0 35.4997 0C34.6828 0 33.8822 0.228248 33.1882 0.658998C32.4941 1.08975 31.9343 1.70586 31.5717 2.43784L1.58665 55.799C1.14945 56.5895 0.897706 57.469 0.850446 58.3711C0.803186 59.2731 0.961651 60.1741 1.31386 61.006C1.62947 61.8711 2.19981 62.6202 2.94971 63.1547C3.6996 63.6892 4.59386 63.9839 5.5146 64H65.4862C66.4069 63.9839 67.3012 63.6892 68.0511 63.1547C68.801 62.6202 69.3713 61.8711 69.6869 61.006C70.0389 60.174 70.1971 59.273 70.1496 58.3709C70.1021 57.4688 69.8501 56.5894 69.4127 55.799ZM66.1935 59.5257C66.1071 59.7299 65.8648 60.2055 65.4847 60.2055H5.51311C5.13298 60.2055 4.89075 59.7299 4.80429 59.5257C4.67569 59.2276 4.61658 58.9041 4.63142 58.5797C4.64627 58.2553 4.7347 57.9386 4.89 57.6534L34.8773 4.29598C35.1598 3.79213 35.4154 3.79213 35.4997 3.79213C35.5839 3.79213 35.8395 3.79213 36.122 4.29523L66.1093 57.6564C66.2646 57.9416 66.353 58.2583 66.3679 58.5827C66.3827 58.907 66.3236 59.2305 66.195 59.5287L66.1935 59.5257ZM38.3796 16.5941H32.6182C32.1811 16.5932 31.7486 16.6829 31.3479 16.8577C30.9473 17.0325 30.5874 17.2885 30.2908 17.6096C29.9942 17.9306 29.7674 18.3097 29.6248 18.7229C29.4822 19.1361 29.4269 19.5744 29.4624 20.01L31.4077 45.0385C31.4445 45.5144 31.6596 45.9588 32.0099 46.283C32.3602 46.6072 32.8199 46.7872 33.2972 46.7871H37.7036C38.1809 46.7872 38.6406 46.6072 38.9909 46.283C39.3412 45.9588 39.5563 45.5144 39.5931 45.0385L41.5384 20.01C41.5732 19.5746 41.5174 19.1368 41.3745 18.7241C41.2316 18.3114 41.0046 17.9328 40.708 17.6123C40.4114 17.2917 40.0516 17.0361 39.6512 16.8616C39.2508 16.6872 38.8186 16.5976 38.3819 16.5986L38.3796 16.5941ZM35.9469 42.9956H35.0524L33.2934 20.3894H37.7059L35.9469 42.9956ZM35.4997 48.0169C34.5976 48.0169 33.7159 48.2844 32.9658 48.7855C32.2158 49.2867 31.6313 49.999 31.2861 50.8323C30.9409 51.6657 30.8506 52.5827 31.0265 53.4674C31.2025 54.3521 31.6369 55.1647 32.2747 55.8026C32.9126 56.4404 33.7252 56.8748 34.6099 57.0508C35.4946 57.2267 36.4116 57.1364 37.245 56.7912C38.0783 56.446 38.7906 55.8615 39.2918 55.1115C39.7929 54.3615 40.0604 53.4797 40.0604 52.5777C40.059 51.3685 39.5781 50.2093 38.7231 49.3542C37.8681 48.4992 36.7088 48.0183 35.4997 48.0169ZM35.4997 53.3476C35.3473 53.3477 35.1984 53.3027 35.0717 53.2182C34.945 53.1337 34.8462 53.0135 34.7878 52.8728C34.7294 52.7321 34.7141 52.5773 34.7437 52.4279C34.7733 52.2785 34.8466 52.1412 34.9542 52.0335C35.0619 51.9257 35.1991 51.8523 35.3484 51.8226C35.4978 51.7928 35.6526 51.808 35.7934 51.8663C35.9341 51.9245 36.0544 52.0232 36.139 52.1498C36.2237 52.2765 36.2688 52.4253 36.2688 52.5777C36.2687 52.7817 36.1876 52.9773 36.0434 53.1216C35.8992 53.2659 35.7037 53.3472 35.4997 53.3476Z" fill="url(#paint0_linear_853_3777)"/>
<defs>
<linearGradient id="paint0_linear_853_3777" x1="35.5001" y1="0" x2="35.5001" y2="64" gradientUnits="userSpaceOnUse">
<stop stop-color="#42586A"/>
<stop offset="1" stop-color="#05B2DF"/>
</linearGradient>
</defs>
</svg>
