<svg width="65" height="64" viewBox="0 0 65 64" fill="none" xmlns="http://www.w3.org/2000/svg">
<path d="M61.2965 28.8032C60.6373 28.806 59.995 29.0123 59.4575 29.3941C58.92 29.7758 58.5136 30.3143 58.2938 30.9358H51.6999V22.2125C51.6953 21.8916 51.6413 21.5733 51.5399 21.2688C51.5193 21.1279 51.4703 20.9926 51.396 20.8711C51.3853 20.854 51.3682 20.8455 51.3576 20.8284C51.0873 20.2604 50.6565 19.7841 50.1185 19.4582L34.1241 10.0567C33.9483 9.96132 33.7637 9.88311 33.5728 9.82318V6.21483C34.2843 5.96329 34.8839 5.46835 35.2657 4.81747C35.6475 4.16659 35.7869 3.40169 35.6593 2.65795C35.5317 1.91421 35.1453 1.23953 34.5684 0.753148C33.9914 0.266766 33.2611 0 32.5065 0C31.7519 0 31.0216 0.266766 30.4447 0.753148C29.8677 1.23953 29.4813 1.91421 29.3537 2.65795C29.2261 3.40169 29.3655 4.16659 29.7473 4.81747C30.1292 5.46835 30.7288 5.96329 31.4402 6.21483V9.82318C31.2495 9.88337 31.0649 9.96156 30.889 10.0567L14.8945 19.4636C14.3569 19.7893 13.9268 20.2657 13.6576 20.8337C13.6469 20.8497 13.6299 20.8583 13.6192 20.8753C13.5453 20.997 13.4964 21.1322 13.4753 21.2731C13.3739 21.5776 13.3199 21.8958 13.3153 22.2167V30.9358H6.71922C6.46769 30.2244 5.97274 29.6248 5.32186 29.243C4.67098 28.8611 3.90608 28.7217 3.16234 28.8493C2.41861 28.9769 1.74393 29.3633 1.25754 29.9403C0.77116 30.5172 0.504395 31.2475 0.504395 32.0021C0.504395 32.7567 0.77116 33.487 1.25754 34.064C1.74393 34.6409 2.41861 35.0273 3.16234 35.155C3.90608 35.2826 4.67098 35.1431 5.32186 34.7613C5.97274 34.3795 6.46769 33.7799 6.71922 33.0684H13.3132V41.7929C13.3158 42.3494 13.4629 42.8957 13.7401 43.3784C14.0173 43.861 14.4151 44.2633 14.8945 44.546L30.889 53.9476C31.0648 54.043 31.2494 54.1212 31.4402 54.1811V57.7852C30.7288 58.0367 30.1292 58.5317 29.7473 59.1825C29.3655 59.8334 29.2261 60.5983 29.3537 61.3421C29.4813 62.0858 29.8677 62.7605 30.4447 63.2469C31.0216 63.7332 31.7519 64 32.5065 64C33.2611 64 33.9914 63.7332 34.5684 63.2469C35.1453 62.7605 35.5317 62.0858 35.6593 61.3421C35.7869 60.5983 35.6475 59.8334 35.2657 59.1825C34.8839 58.5317 34.2843 58.0367 33.5728 57.7852V54.1864C33.7635 54.1256 33.9481 54.0471 34.1241 53.9518L50.1185 44.545C50.5978 44.2624 50.9955 43.8602 51.2727 43.3778C51.5498 42.8953 51.697 42.3492 51.6999 41.7929V33.0684H58.2938C58.4903 33.6199 58.8345 34.1067 59.2889 34.4758C59.7433 34.8449 60.2905 35.0819 60.8705 35.161C61.4505 35.2402 62.0411 35.1584 62.5778 34.9245C63.1145 34.6907 63.5766 34.3139 63.9136 33.8352C64.2506 33.3565 64.4495 32.7944 64.4886 32.2103C64.5278 31.6262 64.4056 31.0426 64.1355 30.5232C63.8654 30.0039 63.4577 29.5688 62.957 29.2654C62.4563 28.9621 61.8819 28.8022 61.2965 28.8032ZM3.71653 33.0684C3.50564 33.0684 3.29948 33.0059 3.12413 32.8887C2.94878 32.7716 2.81211 32.605 2.7314 32.4102C2.6507 32.2153 2.62958 32.0009 2.67073 31.7941C2.71187 31.5873 2.81342 31.3973 2.96255 31.2481C3.11167 31.099 3.30167 30.9975 3.50851 30.9563C3.71535 30.9152 3.92975 30.9363 4.12459 31.017C4.31943 31.0977 4.48596 31.2344 4.60313 31.4097C4.72029 31.5851 4.78283 31.7912 4.78283 32.0021C4.78283 32.2849 4.67049 32.5561 4.47052 32.7561C4.27055 32.9561 3.99933 33.0684 3.71653 33.0684ZM32.5065 2.14584C32.7174 2.14584 32.9236 2.20838 33.0989 2.32555C33.2743 2.44271 33.4109 2.60925 33.4917 2.80409C33.5724 2.99893 33.5935 3.21332 33.5523 3.42016C33.5112 3.627 33.4096 3.817 33.2605 3.96612C33.1114 4.11525 32.9214 4.2168 32.7146 4.25795C32.5077 4.29909 32.2933 4.27797 32.0985 4.19727C31.9036 4.11656 31.7371 3.97989 31.6199 3.80454C31.5028 3.62919 31.4402 3.42303 31.4402 3.21214C31.4402 2.92934 31.5526 2.65812 31.7525 2.45815C31.9525 2.25818 32.2237 2.14584 32.5065 2.14584ZM31.4402 12.2031V24.5381C31.4402 24.8209 31.5526 25.0921 31.7525 25.292C31.9525 25.492 32.2237 25.6044 32.5065 25.6044C32.7893 25.6044 33.0605 25.492 33.2605 25.292C33.4605 25.0921 33.5728 24.8209 33.5728 24.5381V12.2031L48.8358 21.1792L35.6766 29.1764C35.2812 28.7247 34.7938 28.3627 34.2471 28.1146C33.7003 27.8666 33.1069 27.7383 32.5065 27.7383C31.9062 27.7383 31.3127 27.8666 30.766 28.1146C30.2193 28.3627 29.7318 28.7247 29.3364 29.1764L16.1773 21.1792L31.4402 12.2031ZM32.5065 29.8695C32.9283 29.8695 33.3406 29.9946 33.6913 30.2289C34.042 30.4633 34.3154 30.7963 34.4768 31.186C34.6382 31.5757 34.6804 32.0045 34.5981 32.4182C34.5159 32.8319 34.3127 33.2119 34.0145 33.5101C33.7162 33.8084 33.3363 34.0115 32.9226 34.0938C32.5089 34.176 32.0801 34.1338 31.6904 33.9724C31.3007 33.811 30.9677 33.5376 30.7333 33.1869C30.499 32.8362 30.3739 32.4239 30.3739 32.0021C30.3739 31.4365 30.5986 30.8941 30.9986 30.4942C31.3985 30.0942 31.9409 29.8695 32.5065 29.8695ZM32.5065 61.8584C32.2956 61.8584 32.0895 61.7959 31.9141 61.6787C31.7388 61.5616 31.6021 61.395 31.5214 61.2002C31.4407 61.0053 31.4196 60.7909 31.4607 60.5841C31.5019 60.3773 31.6034 60.1873 31.7525 60.0381C31.9017 59.889 32.0917 59.7875 32.2985 59.7463C32.5053 59.7052 32.7197 59.7263 32.9146 59.807C33.1094 59.8877 33.276 60.0244 33.3931 60.1997C33.5103 60.3751 33.5728 60.5812 33.5728 60.7921C33.5728 61.0749 33.4605 61.3461 33.2605 61.5461C33.0605 61.7461 32.7893 61.8584 32.5065 61.8584ZM49.5673 41.7929C49.5663 41.9786 49.5166 42.1607 49.423 42.3211C49.3294 42.4815 49.1953 42.6145 49.0341 42.7067L33.5728 51.8011V39.4662C33.5728 39.1834 33.4605 38.9122 33.2605 38.7122C33.0605 38.5123 32.7893 38.3999 32.5065 38.3999C32.2237 38.3999 31.9525 38.5123 31.7525 38.7122C31.5526 38.9122 31.4402 39.1834 31.4402 39.4662V51.8011L15.9789 42.7077C15.8177 42.6154 15.6835 42.4822 15.5899 42.3217C15.4964 42.1611 15.4466 41.9787 15.4458 41.7929V33.0684H25.0425C25.3253 33.0684 25.5965 32.9561 25.7964 32.7561C25.9964 32.5561 26.1087 32.2849 26.1087 32.0021C26.1087 31.7193 25.9964 31.4481 25.7964 31.2481C25.5965 31.0482 25.3253 30.9358 25.0425 30.9358H15.4458V23.2297L28.348 31.0713C28.2056 31.6959 28.2058 32.3446 28.3485 32.9691C28.4912 33.5937 28.7728 34.178 29.1723 34.6788C29.5718 35.1797 30.079 35.584 30.6562 35.8619C31.2335 36.1399 31.8659 36.2842 32.5065 36.2842C33.1472 36.2842 33.7796 36.1399 34.3568 35.8619C34.934 35.584 35.4412 35.1797 35.8408 34.6788C36.2403 34.178 36.5218 33.5937 36.6645 32.9691C36.8073 32.3446 36.8074 31.6959 36.6651 31.0713L49.5673 23.2297V30.9358H39.9706C39.6878 30.9358 39.4166 31.0482 39.2166 31.2481C39.0166 31.4481 38.9043 31.7193 38.9043 32.0021C38.9043 32.2849 39.0166 32.5561 39.2166 32.7561C39.4166 32.9561 39.6878 33.0684 39.9706 33.0684H49.5673V41.7929ZM61.2965 33.0684C61.0856 33.0684 60.8795 33.0059 60.7041 32.8887C60.5288 32.7716 60.3921 32.605 60.3114 32.4102C60.2307 32.2153 60.2096 32.0009 60.2507 31.7941C60.2919 31.5873 60.3934 31.3973 60.5425 31.2481C60.6917 31.099 60.8817 30.9975 61.0885 30.9563C61.2953 30.9152 61.5097 30.9363 61.7046 31.017C61.8994 31.0977 62.0659 31.2344 62.1831 31.4097C62.3003 31.5851 62.3628 31.7912 62.3628 32.0021C62.3628 32.2849 62.2505 32.5561 62.0505 32.7561C61.8505 32.9561 61.5793 33.0684 61.2965 33.0684Z" fill="url(#paint0_linear_244_252)"/>
<path d="M2.65063 22.4054C2.65063 22.6882 2.76298 22.9594 2.96295 23.1594C3.16291 23.3593 3.43413 23.4717 3.71693 23.4717C3.99973 23.4717 4.27095 23.3593 4.47092 23.1594C4.67089 22.9594 4.78323 22.6882 4.78323 22.4054V9.60982C4.78492 8.19635 5.34717 6.84125 6.34665 5.84177C7.34613 4.84229 8.70123 4.28004 10.1147 4.27834H22.9103C23.1931 4.27834 23.4643 4.166 23.6642 3.96603C23.8642 3.76606 23.9766 3.49485 23.9766 3.21205C23.9766 2.92925 23.8642 2.65803 23.6642 2.45806C23.4643 2.25809 23.1931 2.14575 22.9103 2.14575H10.1147C8.13589 2.14829 6.23885 2.9355 4.83962 4.33473C3.44038 5.73397 2.65317 7.63101 2.65063 9.60982V22.4054Z" fill="#05B2DF"/>
<path d="M61.2967 23.4717C61.5795 23.4717 61.8508 23.3593 62.0507 23.1594C62.2507 22.9594 62.363 22.6882 62.363 22.4054V9.60982C62.3605 7.63101 61.5733 5.73397 60.174 4.33473C58.7748 2.9355 56.8778 2.14829 54.899 2.14575H42.1034C41.8206 2.14575 41.5494 2.25809 41.3494 2.45806C41.1495 2.65803 41.0371 2.92925 41.0371 3.21205C41.0371 3.49485 41.1495 3.76606 41.3494 3.96603C41.5494 4.166 41.8206 4.27834 42.1034 4.27834H54.899C56.3124 4.28004 57.6675 4.84229 58.667 5.84177C59.6665 6.84125 60.2287 8.19635 60.2304 9.60982V22.4054C60.2304 22.6882 60.3428 22.9594 60.5427 23.1594C60.7427 23.3593 61.0139 23.4717 61.2967 23.4717Z" fill="#05B2DF"/>
<path d="M22.9103 59.7258H10.1147C8.70123 59.7241 7.34613 59.1619 6.34665 58.1624C5.34717 57.1629 4.78492 55.8078 4.78323 54.3943V41.5988C4.78323 41.316 4.67089 41.0448 4.47092 40.8448C4.27095 40.6448 3.99973 40.5325 3.71693 40.5325C3.43413 40.5325 3.16291 40.6448 2.96295 40.8448C2.76298 41.0448 2.65063 41.316 2.65063 41.5988V54.3943C2.65317 56.3731 3.44038 58.2702 4.83962 59.6694C6.23885 61.0686 8.13589 61.8559 10.1147 61.8584H22.9103C23.1931 61.8584 23.4643 61.746 23.6642 61.5461C23.8642 61.3461 23.9766 61.0749 23.9766 60.7921C23.9766 60.5093 23.8642 60.2381 23.6642 60.0381C23.4643 59.8381 23.1931 59.7258 22.9103 59.7258Z" fill="#05B2DF"/>
<path d="M61.2967 40.5325C61.0139 40.5325 60.7427 40.6448 60.5427 40.8448C60.3428 41.0448 60.2304 41.316 60.2304 41.5988V54.3943C60.2287 55.8078 59.6665 57.1629 58.667 58.1624C57.6675 59.1619 56.3124 59.7241 54.899 59.7258H42.1034C41.8206 59.7258 41.5494 59.8381 41.3494 60.0381C41.1495 60.2381 41.0371 60.5093 41.0371 60.7921C41.0371 61.0749 41.1495 61.3461 41.3494 61.5461C41.5494 61.746 41.8206 61.8584 42.1034 61.8584H54.899C56.8778 61.8559 58.7748 61.0686 60.174 59.6694C61.5733 58.2702 62.3605 56.3731 62.363 54.3943V41.5988C62.363 41.316 62.2507 41.0448 62.0507 40.8448C61.8508 40.6448 61.5795 40.5325 61.2967 40.5325Z" fill="#05B2DF"/>
<defs>
<linearGradient id="paint0_linear_244_252" x1="32.5001" y1="0" x2="32.5001" y2="64" gradientUnits="userSpaceOnUse">
<stop stop-color="#42586A"/>
<stop offset="1" stop-color="#05B2DF"/>
</linearGradient>
</defs>
</svg>
