<svg width="65" height="64" viewBox="0 0 65 64" fill="none" xmlns="http://www.w3.org/2000/svg">
<path d="M20.0556 55.7038H11.1667C10.538 55.7038 9.93509 55.4541 9.49056 55.0095C9.04603 54.565 8.7963 53.9621 8.7963 53.3334V44.4445C8.7963 43.3444 8.35926 42.2893 7.58133 41.5114C6.8034 40.7334 5.74831 40.2964 4.64815 40.2964C3.54799 40.2964 2.49289 40.7334 1.71496 41.5114C0.937036 42.2893 0.5 43.3444 0.5 44.4445V53.3334C0.5 56.1624 1.62381 58.8755 3.62419 60.8759C5.62458 62.8763 8.33769 64.0001 11.1667 64.0001H20.0556C21.1557 64.0001 22.2108 63.5631 22.9887 62.7851C23.7667 62.0072 24.2037 60.9521 24.2037 59.8519C24.2037 58.7518 23.7667 57.6967 22.9887 56.9188C22.2108 56.1408 21.1557 55.7038 20.0556 55.7038ZM20.0556 61.6297H11.1667C8.96635 61.6297 6.85616 60.7556 5.3003 59.1998C3.74444 57.6439 2.87037 55.5337 2.87037 53.3334V44.4445C2.87037 43.973 3.05767 43.5209 3.39107 43.1875C3.72447 42.8541 4.17665 42.6668 4.64815 42.6668C5.11964 42.6668 5.57183 42.8541 5.90523 43.1875C6.23863 43.5209 6.42593 43.973 6.42593 44.4445V53.3334C6.42593 54.5907 6.9254 55.7966 7.81446 56.6856C8.70352 57.5747 9.90934 58.0742 11.1667 58.0742H20.0556C20.5271 58.0742 20.9792 58.2615 21.3126 58.5949C21.646 58.9283 21.8333 59.3804 21.8333 59.8519C21.8333 60.3234 21.646 60.7756 21.3126 61.109C20.9792 61.4424 20.5271 61.6297 20.0556 61.6297Z" fill="url(#paint0_linear_853_4149)"/>
<path d="M60.3519 40.2964C59.2518 40.2964 58.1967 40.7334 57.4188 41.5114C56.6408 42.2893 56.2038 43.3444 56.2038 44.4445V53.3334C56.2038 53.9621 55.9541 54.565 55.5095 55.0095C55.065 55.4541 54.4621 55.7038 53.8334 55.7038H44.9445C43.8444 55.7038 42.7893 56.1408 42.0114 56.9188C41.2334 57.6967 40.7964 58.7518 40.7964 59.8519C40.7964 60.9521 41.2334 62.0072 42.0114 62.7851C42.7893 63.5631 43.8444 64.0001 44.9445 64.0001H53.8334C56.6624 64.0001 59.3755 62.8763 61.3759 60.8759C63.3763 58.8755 64.5001 56.1624 64.5001 53.3334V44.4445C64.5001 43.8998 64.3928 43.3604 64.1843 42.8571C63.9759 42.3538 63.6703 41.8965 63.2851 41.5114C62.8999 41.1262 62.4426 40.8206 61.9394 40.6121C61.4361 40.4037 60.8967 40.2964 60.3519 40.2964ZM62.1297 53.3334C62.1297 55.5337 61.2556 57.6439 59.6998 59.1998C58.1439 60.7556 56.0337 61.6297 53.8334 61.6297H44.9445C44.473 61.6297 44.0209 61.4424 43.6875 61.109C43.3541 60.7756 43.1668 60.3234 43.1668 59.8519C43.1668 59.3804 43.3541 58.9283 43.6875 58.5949C44.0209 58.2615 44.473 58.0742 44.9445 58.0742H53.8334C55.0907 58.0742 56.2966 57.5747 57.1856 56.6856C58.0747 55.7966 58.5742 54.5907 58.5742 53.3334V44.4445C58.5742 43.973 58.7615 43.5209 59.0949 43.1875C59.4283 42.8541 59.8804 42.6668 60.3519 42.6668C60.8234 42.6668 61.2756 42.8541 61.609 43.1875C61.9424 43.5209 62.1297 43.973 62.1297 44.4445V53.3334Z" fill="url(#paint1_linear_853_4149)"/>
<path d="M4.64815 23.7037C5.74831 23.7037 6.8034 23.2667 7.58133 22.4887C8.35926 21.7108 8.7963 20.6557 8.7963 19.5556V10.6667C8.7963 10.038 9.04603 9.43509 9.49056 8.99056C9.93509 8.54603 10.538 8.2963 11.1667 8.2963H20.0556C21.1557 8.2963 22.2108 7.85926 22.9887 7.08133C23.7667 6.3034 24.2037 5.24831 24.2037 4.14815C24.2037 3.04799 23.7667 1.99289 22.9887 1.21496C22.2108 0.437036 21.1557 0 20.0556 0H11.1667C8.33769 0 5.62458 1.12381 3.62419 3.12419C1.62381 5.12458 0.5 7.83769 0.5 10.6667V19.5556C0.5 20.6557 0.937036 21.7108 1.71496 22.4887C2.49289 23.2667 3.54799 23.7037 4.64815 23.7037ZM2.87037 10.6667C2.87037 8.46635 3.74444 6.35616 5.3003 4.8003C6.85616 3.24444 8.96635 2.37037 11.1667 2.37037H20.0556C20.5271 2.37037 20.9792 2.55767 21.3126 2.89107C21.646 3.22447 21.8333 3.67665 21.8333 4.14815C21.8333 4.61964 21.646 5.07183 21.3126 5.40523C20.9792 5.73863 20.5271 5.92593 20.0556 5.92593H11.1667C9.90934 5.92593 8.70352 6.4254 7.81446 7.31446C6.9254 8.20352 6.42593 9.40934 6.42593 10.6667V19.5556C6.42593 20.0271 6.23863 20.4792 5.90523 20.8126C5.57183 21.146 5.11964 21.3333 4.64815 21.3333C4.17665 21.3333 3.72447 21.146 3.39107 20.8126C3.05767 20.4792 2.87037 20.0271 2.87037 19.5556V10.6667Z" fill="url(#paint2_linear_853_4149)"/>
<path d="M53.8334 0H44.9445C43.8444 0 42.7893 0.437036 42.0114 1.21496C41.2334 1.99289 40.7964 3.04799 40.7964 4.14815C40.7964 5.24831 41.2334 6.3034 42.0114 7.08133C42.7893 7.85926 43.8444 8.2963 44.9445 8.2963H53.8334C54.4621 8.2963 55.065 8.54603 55.5095 8.99056C55.9541 9.43509 56.2038 10.038 56.2038 10.6667V19.5556C56.2038 20.6557 56.6408 21.7108 57.4188 22.4887C58.1967 23.2667 59.2518 23.7037 60.3519 23.7037C61.4521 23.7037 62.5072 23.2667 63.2851 22.4887C64.0631 21.7108 64.5001 20.6557 64.5001 19.5556V10.6667C64.5001 7.83769 63.3763 5.12458 61.3759 3.12419C59.3755 1.12381 56.6624 0 53.8334 0ZM62.1297 19.5556C62.1297 20.0271 61.9424 20.4792 61.609 20.8126C61.2756 21.146 60.8234 21.3333 60.3519 21.3333C59.8804 21.3333 59.4283 21.146 59.0949 20.8126C58.7615 20.4792 58.5742 20.0271 58.5742 19.5556V10.6667C58.5742 9.40934 58.0747 8.20352 57.1856 7.31446C56.2966 6.4254 55.0907 5.92593 53.8334 5.92593H44.9445C44.473 5.92593 44.0209 5.73863 43.6875 5.40523C43.3541 5.07183 43.1668 4.61964 43.1668 4.14815C43.1668 3.67665 43.3541 3.22447 43.6875 2.89107C44.0209 2.55767 44.473 2.37037 44.9445 2.37037H53.8334C56.0337 2.37037 58.1439 3.24444 59.6998 4.8003C61.2556 6.35616 62.1297 8.46635 62.1297 10.6667V19.5556Z" fill="url(#paint3_linear_853_4149)"/>
<path d="M37.8334 43.3779C37.5431 43.2641 37.2234 43.2488 36.9236 43.3345C36.6238 43.4202 36.3605 43.602 36.1741 43.852C36.1741 43.9705 35.226 45.6297 32.5 45.6297C31.7971 45.6884 31.0908 45.5668 30.4479 45.2764C29.805 44.9861 29.2468 44.5366 28.826 43.9705C28.6703 43.7392 28.4382 43.5702 28.1703 43.4931C27.9025 43.4161 27.616 43.4359 27.3613 43.5491C27.1066 43.6623 26.8999 43.8617 26.7776 44.1121C26.6553 44.3626 26.6252 44.6482 26.6926 44.9186C27.2711 45.928 28.1234 46.7531 29.1511 47.2984C30.1788 47.8437 31.3399 48.087 32.5 48.0001C33.6602 48.087 34.8212 47.8437 35.8489 47.2984C36.8766 46.7531 37.729 45.928 38.3074 44.9186C38.4126 44.6458 38.423 44.3456 38.3371 44.0662C38.2511 43.7868 38.0737 43.5443 37.8334 43.3779Z" fill="url(#paint4_linear_853_4149)"/>
<path d="M49.2112 41.4817C53.1223 41.3632 56.2038 38.5187 56.2038 34.9632C56.1316 33.3682 55.4969 31.8502 54.4121 30.6787C53.3273 29.5071 51.8626 28.7576 50.2779 28.5632C50.2779 23.8482 48.4049 19.3264 45.0709 15.9924C41.7369 12.6584 37.215 10.7854 32.5001 10.7854C27.7851 10.7854 23.2633 12.6584 19.9293 15.9924C16.5953 19.3264 14.7223 23.8482 14.7223 28.5632C13.1375 28.7576 11.6729 29.5071 10.5881 30.6787C9.5033 31.8502 8.86854 33.3682 8.79639 34.9632C8.79639 38.5187 11.8779 41.3632 15.789 41.4817C16.9799 44.9679 19.2312 47.9943 22.2278 50.1373C25.2244 52.2802 28.8161 53.4323 32.5001 53.4323C36.1841 53.4323 39.7758 52.2802 42.7724 50.1373C45.7689 47.9943 48.0203 44.9679 49.2112 41.4817ZM53.8334 34.9632C53.7795 35.9944 53.3535 36.9711 52.6343 37.7121C51.915 38.4531 50.9515 38.9082 49.9223 38.9928C50.1636 37.8632 50.2828 36.7109 50.2779 35.5558V30.9335C51.2336 31.1157 52.1016 31.6104 52.7452 32.3399C53.3889 33.0694 53.7717 33.9923 53.8334 34.9632ZM32.5001 13.0373C36.5864 13.0373 40.5053 14.6605 43.3948 17.55C46.2842 20.4394 47.9075 24.3584 47.9075 28.4447V28.9187C42.3371 31.4076 31.0779 33.541 23.9668 25.2447C23.6634 25.0056 23.2862 24.8799 22.9001 24.8891C22.7322 24.8876 22.567 24.9307 22.4212 25.014C22.2754 25.0973 22.1544 25.2178 22.0705 25.3632C21.4951 26.1787 20.7546 26.864 19.897 27.3745C19.0393 27.885 18.0839 28.2092 17.0927 28.3261C17.124 24.2604 18.761 20.3719 21.6471 17.508C24.5332 14.6441 28.4342 13.0371 32.5001 13.0373ZM11.1668 34.9632C11.2284 33.9923 11.6113 33.0694 12.2549 32.3399C12.8986 31.6104 13.7666 31.1157 14.7223 30.9335V35.5558C14.7173 36.7109 14.8365 37.8632 15.0779 38.9928C14.0487 38.9082 13.0851 38.4531 12.3659 37.7121C11.6467 36.9711 11.2207 35.9944 11.1668 34.9632ZM32.5001 50.9632C28.4138 50.9632 24.4949 49.3399 21.6054 46.4505C18.716 43.561 17.0927 39.6421 17.0927 35.5558V30.6965C19.3498 30.5064 21.4585 29.4942 23.0186 27.8521C24.9203 29.7267 27.1817 31.1971 29.6666 32.1747C32.1516 33.1524 34.8086 33.6171 37.4779 33.541C41.0612 33.5253 44.6059 32.8003 47.9075 31.4076V35.5558C47.9075 39.6421 46.2842 43.561 43.3948 46.4505C40.5053 49.3399 36.5864 50.9632 32.5001 50.9632Z" fill="url(#paint5_linear_853_4149)"/>
<path d="M24.2036 40.2964C25.5127 40.2964 26.574 39.2352 26.574 37.926C26.574 36.6169 25.5127 35.5557 24.2036 35.5557C22.8945 35.5557 21.8333 36.6169 21.8333 37.926C21.8333 39.2352 22.8945 40.2964 24.2036 40.2964Z" fill="url(#paint6_linear_853_4149)"/>
<path d="M40.7964 40.2964C42.1055 40.2964 43.1668 39.2352 43.1668 37.926C43.1668 36.6169 42.1055 35.5557 40.7964 35.5557C39.4873 35.5557 38.426 36.6169 38.426 37.926C38.426 39.2352 39.4873 40.2964 40.7964 40.2964Z" fill="url(#paint7_linear_853_4149)"/>
<defs>
<linearGradient id="paint0_linear_853_4149" x1="12.3519" y1="40.2964" x2="12.3519" y2="64.0001" gradientUnits="userSpaceOnUse">
<stop stop-color="#42586A"/>
<stop offset="1" stop-color="#05B2DF"/>
</linearGradient>
<linearGradient id="paint1_linear_853_4149" x1="52.6482" y1="40.2964" x2="52.6482" y2="64.0001" gradientUnits="userSpaceOnUse">
<stop stop-color="#42586A"/>
<stop offset="1" stop-color="#05B2DF"/>
</linearGradient>
<linearGradient id="paint2_linear_853_4149" x1="12.3519" y1="0" x2="12.3519" y2="23.7037" gradientUnits="userSpaceOnUse">
<stop stop-color="#42586A"/>
<stop offset="1" stop-color="#05B2DF"/>
</linearGradient>
<linearGradient id="paint3_linear_853_4149" x1="52.6482" y1="0" x2="52.6482" y2="23.7037" gradientUnits="userSpaceOnUse">
<stop stop-color="#42586A"/>
<stop offset="1" stop-color="#05B2DF"/>
</linearGradient>
<linearGradient id="paint4_linear_853_4149" x1="32.5261" y1="43.2798" x2="32.5261" y2="48.0173" gradientUnits="userSpaceOnUse">
<stop stop-color="#42586A"/>
<stop offset="1" stop-color="#05B2DF"/>
</linearGradient>
<linearGradient id="paint5_linear_853_4149" x1="32.5001" y1="10.7854" x2="32.5001" y2="53.4323" gradientUnits="userSpaceOnUse">
<stop stop-color="#42586A"/>
<stop offset="1" stop-color="#05B2DF"/>
</linearGradient>
<linearGradient id="paint6_linear_853_4149" x1="24.2036" y1="35.5557" x2="24.2036" y2="40.2964" gradientUnits="userSpaceOnUse">
<stop stop-color="#42586A"/>
<stop offset="1" stop-color="#05B2DF"/>
</linearGradient>
<linearGradient id="paint7_linear_853_4149" x1="40.7964" y1="35.5557" x2="40.7964" y2="40.2964" gradientUnits="userSpaceOnUse">
<stop stop-color="#42586A"/>
<stop offset="1" stop-color="#05B2DF"/>
</linearGradient>
</defs>
</svg>
