<svg width="86" height="64" viewBox="0 0 86 64" fill="none" xmlns="http://www.w3.org/2000/svg">
<path d="M11.0026 32.1385V29.079C10.9922 27.1893 12.2105 25.5108 14.0102 24.9362L16.2806 24.2025C16.5747 24.1056 16.8447 23.9464 17.0696 23.7353C17.2877 23.5207 17.4504 23.2542 17.5507 22.9635C17.703 22.5239 17.8691 22.0913 18.0456 21.6587C18.2221 21.226 18.4194 20.79 18.6132 20.3919C18.7482 20.1116 18.8209 19.807 18.8209 19.499C18.814 19.191 18.7344 18.8899 18.589 18.6165L17.5057 16.4949C16.6404 14.8129 16.9623 12.7675 18.3086 11.435L22.4445 7.29917L22.441 7.30263C23.7701 5.95634 25.8224 5.63446 27.5009 6.50315L29.6225 7.58647V7.58301C30.1728 7.88757 30.8373 7.89449 31.3945 7.60724C31.796 7.41689 32.2182 7.22653 32.6612 7.04656C33.0904 6.8666 33.5265 6.70047 33.966 6.54818H33.9695C34.5648 6.35437 35.0251 5.88022 35.1981 5.28146L35.9388 3.01107C36.5133 1.20787 38.1919 -0.0103881 40.0816 6.67685e-05H45.9272C47.8168 -0.0103155 49.4954 1.20796 50.0665 3.01107L50.8071 5.28146H50.8037C50.8971 5.57564 51.0563 5.84214 51.2709 6.0671C51.4889 6.28514 51.752 6.45126 52.0462 6.54817C52.4788 6.70046 52.9149 6.86659 53.344 7.04655C53.7939 7.23345 54.2127 7.42034 54.6107 7.60723C54.8876 7.74567 55.1922 7.81489 55.5002 7.81834C55.8082 7.80796 56.1128 7.72836 56.3827 7.583L58.5042 6.49968V6.50315C60.1862 5.63098 62.2351 5.95631 63.5641 7.30262L67.7 11.4385L67.6966 11.435C69.0428 12.7675 69.3682 14.8129 68.4995 16.4949L67.4196 18.6165C67.2743 18.8864 67.1947 19.191 67.1878 19.499C67.1878 19.807 67.2604 20.1151 67.3989 20.3919C67.5858 20.7934 67.7727 21.2156 67.9595 21.6587C68.1464 22.1017 68.3022 22.5239 68.4614 22.9635H68.4579C68.5583 23.2542 68.721 23.5207 68.939 23.7353C69.164 23.9499 69.4339 24.1091 69.7281 24.2025L71.9916 24.9362C73.7948 25.5073 75.0165 27.1893 75.006 29.079V32.1385C75.4075 32.4015 75.7848 32.7095 76.1239 33.0521C77.4495 34.3742 78.1935 36.1704 78.1935 38.0428C78.1935 39.9152 77.4494 41.708 76.1239 43.0335C75.9889 43.1685 75.8505 43.3 75.7051 43.4212C79.9552 44.7155 83.4646 47.7439 85.3679 51.7586C86.1605 53.4026 86.0497 55.3373 85.0737 56.8808C84.1012 58.421 82.3984 59.352 80.571 59.3381H61.6911C59.8638 59.3588 58.1609 58.4209 57.2057 56.8634L57.1815 56.8254L56.3751 56.4135V56.417C55.8248 56.1124 55.1603 56.1055 54.6031 56.3928C54.2016 56.5797 53.7828 56.7666 53.3364 56.9534C52.9072 57.13 52.4746 57.2961 52.0385 57.4518C51.4433 57.6456 50.983 58.1198 50.803 58.7185L50.0624 60.9855H50.0658C49.4948 62.7887 47.8162 64.0104 45.9265 63.9999H40.0774C38.1878 64.0103 36.5058 62.7886 35.9346 60.9855L35.194 58.7185C35.021 58.1198 34.5606 57.6457 33.9654 57.4518C33.5293 57.2961 33.0932 57.13 32.6605 56.9534C32.2175 56.7665 31.7918 56.5797 31.3938 56.3928H31.3904C30.8331 56.1055 30.1686 56.1124 29.6184 56.417L28.8119 56.8288L28.7877 56.8669V56.8635C27.8325 58.4209 26.1297 59.3588 24.3023 59.3381H5.43304C4.53667 59.3485 3.65066 59.127 2.86158 58.6943C2.07941 58.2583 1.42182 57.6249 0.947633 56.8635C-0.0491238 55.3337 -0.166786 53.3956 0.636149 51.7586C2.53619 47.7404 6.04566 44.7155 10.2954 43.4211C10.1535 43.2965 10.0081 43.1684 9.87661 43.03V43.0335C8.55105 41.7079 7.80699 39.9152 7.80699 38.0428C7.80699 36.1704 8.55109 34.3742 9.87661 33.0521C10.2192 32.7094 10.5965 32.4014 11.0014 32.1384L11.0026 32.1385ZM42.999 20.6966C47.1798 20.6931 50.8726 23.4273 52.0876 27.4282C53.3024 31.4325 51.7554 35.7553 48.2771 38.078C49.035 38.303 49.7791 38.5729 50.5024 38.8844C52.4787 39.7427 54.2956 40.9298 55.8739 42.3973C58.5007 39.1405 59.7986 35.0081 59.501 30.834C59.2068 26.6566 57.3379 22.7492 54.275 19.8971C51.2121 17.0418 47.1835 15.4567 42.9961 15.4567C38.8118 15.4567 34.7798 17.0419 31.7173 19.8971C28.6543 22.749 26.7888 26.6564 26.4912 30.834C26.1936 35.0079 27.4915 39.1403 30.1218 42.3973C31.6965 40.9298 33.5135 39.7427 35.4898 38.8844C36.2166 38.5729 36.9572 38.303 37.7152 38.078C37.2029 37.7354 36.7253 37.3408 36.2858 36.9048C33.5689 34.1914 32.759 30.1074 34.2265 26.5597C35.6975 23.0123 39.1584 20.6969 43 20.6969L42.999 20.6966ZM48.045 25.1405C45.6362 22.7386 41.8672 22.3682 39.0397 24.2614C36.2121 26.151 35.1149 29.7782 36.4163 32.9207C37.7176 36.0631 41.0609 37.8491 44.3973 37.1846C47.7336 36.5201 50.1356 33.5921 50.1356 30.19C50.1356 28.2969 49.3844 26.4798 48.045 25.1405ZM72.6459 31.1452V29.079C72.6563 28.2069 72.0921 27.4316 71.258 27.1721L68.9876 26.4349C67.6933 26.0299 66.6722 25.0332 66.2327 23.7492C66.0908 23.3478 65.9385 22.9567 65.7793 22.5656C65.6201 22.1918 65.4505 21.8077 65.2602 21.4062V21.4096C64.6718 20.1914 64.6891 18.762 65.3121 17.561L66.3954 15.436C66.5892 15.0588 66.6619 14.6296 66.5996 14.2074C66.5304 13.7886 66.3296 13.4044 66.0216 13.1068L61.8857 8.97436H61.8892C61.2835 8.34101 60.3318 8.18872 59.5634 8.6075L57.4419 9.69082C56.2374 10.3138 54.8081 10.3311 53.5863 9.73582C53.1918 9.54892 52.8042 9.37241 52.4269 9.22014C52.0497 9.06786 51.6447 8.90519 51.2502 8.76675V8.77021C49.9697 8.32721 48.9729 7.3028 48.561 6.00835L47.8307 3.74487C47.5746 2.91078 46.7959 2.35012 45.9238 2.36394H40.0782C39.6525 2.35702 39.2372 2.48853 38.8911 2.73426C38.5485 2.98692 38.2958 3.33993 38.1712 3.74484L37.4306 6.01178H37.4341C37.0257 7.30614 36.0289 8.33063 34.7484 8.77018C34.3469 8.90862 33.9558 9.0609 33.5648 9.22357C33.191 9.37586 32.8068 9.55236 32.4053 9.73925H32.4088C31.8066 10.0334 31.1455 10.1788 30.4776 10.1719C29.8062 10.1615 29.1486 9.99536 28.5533 9.6908L26.4317 8.60748V8.61094C25.6634 8.19216 24.7116 8.34444 24.106 8.9778L19.9701 13.1102C19.3367 13.7159 19.1879 14.6711 19.6067 15.4429L20.69 17.5679H20.6865C21.313 18.7689 21.3303 20.1983 20.735 21.4165C20.5481 21.818 20.3716 22.2022 20.2193 22.576C20.0566 22.967 19.9044 23.3581 19.7659 23.7596V23.7561C19.5479 24.3929 19.1845 24.9675 18.7034 25.4346C18.2258 25.9019 17.6444 26.248 17.0041 26.4452L14.7406 27.1824V27.1859C13.9065 27.4385 13.3389 28.2207 13.3596 29.0928V31.1452C13.8546 31.0379 14.3633 30.9825 14.8686 30.9825C17.7239 30.986 20.2954 32.7026 21.3891 35.3399C22.4828 37.9772 21.8805 41.0124 19.8628 43.0336C19.7243 43.172 19.5824 43.3001 19.4371 43.4247V43.4212C23.6906 44.7122 27.2 47.7405 29.1034 51.7587C29.4287 52.4371 29.6087 53.1778 29.626 53.9322C29.9063 53.8734 30.1901 53.8422 30.4774 53.8387C31.1454 53.8318 31.8064 53.9772 32.4086 54.2679C32.8101 54.4548 33.1943 54.6313 33.568 54.7871C33.9591 54.9463 34.3502 55.0985 34.7517 55.2404H34.7482C36.0322 55.68 37.029 56.7044 37.4339 58.0023L38.1745 60.2692L38.171 60.2658C38.2991 60.6707 38.5518 61.0237 38.8944 61.2694C39.2405 61.5186 39.6558 61.6502 40.0815 61.6432H45.9271C46.3528 61.6502 46.7681 61.5186 47.1107 61.2694C47.4533 61.0202 47.706 60.6672 47.834 60.2658L48.5677 57.9988H48.5712C48.9761 56.7045 49.9729 55.6765 51.2569 55.237C51.6549 55.0951 52.0494 54.9428 52.4336 54.7836C52.8074 54.6279 53.195 54.4548 53.593 54.2645C54.1952 53.9737 54.8563 53.8284 55.5277 53.8353C55.8115 53.8387 56.0953 53.8699 56.3756 53.9287C56.3929 53.1777 56.5729 52.4336 56.8982 51.7553C58.8052 47.7406 62.3112 44.7157 66.5645 43.4213C66.4192 43.2967 66.2773 43.1687 66.1458 43.0302C64.1281 41.0125 63.5224 37.9772 64.616 35.34C65.7062 32.7027 68.2777 30.9826 71.133 30.9826C71.6418 30.9826 72.1505 31.0345 72.6489 31.1452L72.6459 31.1452ZM74.456 34.7169C72.8708 33.1282 70.3858 32.886 68.5204 34.1319C66.6515 35.3778 65.9282 37.7694 66.7865 39.8425C67.6449 41.9156 69.846 43.0924 72.0472 42.6563C74.2484 42.2168 75.8334 40.289 75.8334 38.0429C75.8369 36.797 75.342 35.5959 74.456 34.7169ZM59.0341 55.3307C59.0583 55.3687 59.0756 55.4068 59.0964 55.4449C59.1241 55.5003 59.1621 55.5591 59.1967 55.6179L59.1933 55.6145C59.7228 56.4866 60.6746 57.0092 61.6921 56.9885H80.5684C81.5894 56.9989 82.5412 56.4832 83.0881 55.6214C83.6314 54.7596 83.6903 53.6763 83.2403 52.7591C82.1536 50.468 80.4404 48.5299 78.2947 47.1731C76.1523 45.8165 73.6673 45.1001 71.1305 45.1001C68.5971 45.0966 66.1155 45.813 63.9767 47.1662C61.8309 48.5264 60.1143 50.468 59.0241 52.7626C58.8026 53.2125 58.7022 53.7143 58.7265 54.2162C58.7507 54.6073 58.8545 54.988 59.0345 55.3341L59.0341 55.3307ZM18.198 34.7169C16.6129 33.1318 14.1245 32.8895 12.2625 34.1355C10.397 35.3814 9.67369 37.7695 10.5321 39.8426C11.3904 41.9157 13.5915 43.0925 15.7927 42.6529C17.9905 42.2169 19.5755 40.2891 19.5755 38.0464C19.579 36.797 19.0806 35.5995 18.198 34.7169ZM22.0224 47.1662C19.88 45.8199 17.3985 45.1035 14.8652 45.1035C12.3352 45.1035 9.85373 45.8199 7.71136 47.1662C5.56555 48.5299 3.84891 50.468 2.75877 52.7626C2.54073 53.216 2.4369 53.7143 2.46112 54.2162C2.54072 55.2302 3.11524 56.137 3.99781 56.6423C4.43735 56.8811 4.93228 57.0022 5.43412 56.9953H24.3069C25.3244 57.0161 26.2763 56.4935 26.8057 55.6213C26.8438 55.5659 26.875 55.5071 26.9096 55.4483C26.9234 55.4102 26.9476 55.3721 26.9649 55.3341C27.1449 54.988 27.2487 54.6073 27.273 54.2162C27.3007 53.7143 27.2003 53.2125 26.9753 52.7626C25.8886 50.468 24.1681 48.5264 22.0224 47.1662ZM43.6773 50.8936H43.5285H43.435C43.3796 50.8936 43.3208 50.8936 43.262 50.8971H42.722C42.6667 50.8936 42.6078 50.8936 42.549 50.8936H42.4625H42.3102H42.1994L42.0887 50.8867L41.8949 50.8729H41.881C35.2706 50.4783 29.3458 46.6574 26.2652 40.7981C23.1814 34.9352 23.3926 27.8925 26.8155 22.223C30.2384 16.554 36.3781 13.0891 42.9993 13.0891C49.6204 13.0891 55.7595 16.5536 59.183 22.223C62.6059 27.892 62.8171 34.9354 59.7333 40.7981C56.653 46.6575 50.728 50.4786 44.1175 50.8729H44.0967L43.896 50.8867L43.7921 50.8936H43.6773ZM54.2713 44.1171C51.2118 41.2618 47.1832 39.6733 42.9986 39.6733C38.814 39.6733 34.7858 41.2619 31.7224 44.1171C34.6746 46.8721 38.5301 48.4468 42.5653 48.5437H42.5792H42.7661H43.2333H43.4202H43.434C47.4695 48.4468 51.3285 46.8721 54.277 44.1171H54.2713Z" fill="url(#paint0_linear_244_248)"/>
<defs>
<linearGradient id="paint0_linear_244_248" x1="43.0001" y1="0" x2="43.0001" y2="64" gradientUnits="userSpaceOnUse">
<stop stop-color="#42586A"/>
<stop offset="1" stop-color="#05B2DF"/>
</linearGradient>
</defs>
</svg>
